<svg width="61" height="20" viewBox="0 0 61 20" fill="none" xmlns="http://www.w3.org/2000/svg">
<rect width="61" height="20" rx="4" fill="#5F1477"/>
<path d="M5.17259 14V5.27273H8.61577C9.2777 5.27273 9.84162 5.39915 10.3075 5.65199C10.7734 5.90199 11.1286 6.25 11.3729 6.69602C11.62 7.1392 11.7436 7.65057 11.7436 8.23011C11.7436 8.80966 11.6186 9.32102 11.3686 9.7642C11.1186 10.2074 10.7564 10.5526 10.282 10.7997C9.81037 11.0469 9.23935 11.1705 8.56889 11.1705H6.37429V9.69176H8.2706C8.62571 9.69176 8.91832 9.63068 9.14844 9.50852C9.38139 9.38352 9.55469 9.21165 9.66832 8.9929C9.7848 8.77131 9.84304 8.51705 9.84304 8.23011C9.84304 7.94034 9.7848 7.6875 9.66832 7.47159C9.55469 7.25284 9.38139 7.08381 9.14844 6.96449C8.91548 6.84233 8.62003 6.78125 8.26207 6.78125H7.01776V14H5.17259ZM12.908 14V7.45455H14.668V8.59659H14.7362C14.8555 8.19034 15.0558 7.88352 15.337 7.67614C15.6183 7.46591 15.9421 7.3608 16.3086 7.3608C16.3995 7.3608 16.4975 7.36648 16.6026 7.37784C16.7077 7.3892 16.8001 7.40483 16.8796 7.42472V9.03551C16.7944 9.00994 16.6765 8.98722 16.5259 8.96733C16.3754 8.94744 16.2376 8.9375 16.1126 8.9375C15.8455 8.9375 15.6069 8.99574 15.3967 9.11222C15.1893 9.22585 15.0245 9.38494 14.9023 9.58949C14.783 9.79403 14.7234 10.0298 14.7234 10.2969V14H12.908ZM20.4964 14.1278C19.8232 14.1278 19.2436 13.9915 18.7578 13.7188C18.2749 13.4432 17.9027 13.054 17.6413 12.5511C17.38 12.0455 17.2493 11.4474 17.2493 10.7571C17.2493 10.0838 17.38 9.4929 17.6413 8.98438C17.9027 8.47585 18.2706 8.07955 18.745 7.79545C19.2223 7.51136 19.782 7.36932 20.424 7.36932C20.8558 7.36932 21.2578 7.43892 21.63 7.57812C22.005 7.71449 22.3317 7.92045 22.6101 8.19602C22.8913 8.47159 23.1101 8.81818 23.2663 9.2358C23.4226 9.65057 23.5007 10.1364 23.5007 10.6932V11.1918H17.9737V10.0668H21.7919C21.7919 9.8054 21.7351 9.57386 21.6214 9.37216C21.5078 9.17045 21.3501 9.01278 21.1484 8.89915C20.9496 8.78267 20.718 8.72443 20.4538 8.72443C20.1783 8.72443 19.9339 8.78835 19.7209 8.91619C19.5107 9.04119 19.3459 9.21023 19.2266 9.4233C19.1072 9.63352 19.0462 9.8679 19.0433 10.1264V11.196C19.0433 11.5199 19.103 11.7997 19.2223 12.0355C19.3445 12.2713 19.5163 12.4531 19.7379 12.581C19.9595 12.7088 20.2223 12.7727 20.5263 12.7727C20.728 12.7727 20.9126 12.7443 21.0803 12.6875C21.2479 12.6307 21.3913 12.5455 21.5107 12.4318C21.63 12.3182 21.7209 12.179 21.7834 12.0142L23.4624 12.125C23.3771 12.5284 23.2024 12.8807 22.9382 13.1818C22.6768 13.4801 22.3388 13.7131 21.924 13.8807C21.5121 14.0455 21.0362 14.1278 20.4964 14.1278ZM24.6854 14V7.45455H26.4155V8.60938H26.4922C26.6286 8.22585 26.8558 7.9233 27.174 7.7017C27.4922 7.48011 27.8729 7.36932 28.3161 7.36932C28.7649 7.36932 29.147 7.48153 29.4624 7.70597C29.7777 7.92756 29.9879 8.22869 30.093 8.60938H30.1612C30.2947 8.23438 30.5362 7.93466 30.8857 7.71023C31.2379 7.48295 31.6541 7.36932 32.1342 7.36932C32.745 7.36932 33.2408 7.56392 33.6214 7.95312C34.005 8.33949 34.1967 8.88778 34.1967 9.59801V14H32.3857V9.95597C32.3857 9.59233 32.2891 9.3196 32.0959 9.13778C31.9027 8.95597 31.6612 8.86506 31.3714 8.86506C31.0419 8.86506 30.7848 8.97017 30.6001 9.1804C30.4155 9.38778 30.3232 9.66193 30.3232 10.0028V14H28.5632V9.91761C28.5632 9.59659 28.4709 9.34091 28.2862 9.15057C28.1044 8.96023 27.8643 8.86506 27.5661 8.86506C27.3643 8.86506 27.1825 8.91619 27.0206 9.01847C26.8615 9.1179 26.7351 9.25852 26.6413 9.44034C26.5476 9.61932 26.5007 9.82955 26.5007 10.071V14H24.6854ZM35.6307 14V7.45455H37.446V14H35.6307ZM36.5426 6.6108C36.2727 6.6108 36.0412 6.52131 35.848 6.34233C35.6577 6.16051 35.5625 5.94318 35.5625 5.69034C35.5625 5.44034 35.6577 5.22585 35.848 5.04688C36.0412 4.86506 36.2727 4.77415 36.5426 4.77415C36.8125 4.77415 37.0426 4.86506 37.233 5.04688C37.4261 5.22585 37.5227 5.44034 37.5227 5.69034C37.5227 5.94318 37.4261 6.16051 37.233 6.34233C37.0426 6.52131 36.8125 6.6108 36.5426 6.6108ZM43.0977 11.2131V7.45455H44.913V14H43.1701V12.8111H43.1019C42.9542 13.1946 42.7085 13.5028 42.3647 13.7358C42.0238 13.9687 41.6076 14.0852 41.1161 14.0852C40.6786 14.0852 40.2937 13.9858 39.9613 13.7869C39.6289 13.5881 39.369 13.3054 39.1815 12.9389C38.9968 12.5724 38.9031 12.1335 38.9002 11.6222V7.45455H40.7156V11.2983C40.7184 11.6847 40.8221 11.9901 41.0266 12.2145C41.2312 12.4389 41.5053 12.5511 41.8491 12.5511C42.0678 12.5511 42.2724 12.5014 42.4627 12.402C42.6531 12.2997 42.8065 12.1491 42.9229 11.9503C43.0423 11.7514 43.1005 11.5057 43.0977 11.2131ZM46.3651 14V7.45455H48.0952V8.60938H48.1719C48.3082 8.22585 48.5355 7.9233 48.8537 7.7017C49.1719 7.48011 49.5526 7.36932 49.9957 7.36932C50.4446 7.36932 50.8267 7.48153 51.142 7.70597C51.4574 7.92756 51.6676 8.22869 51.7727 8.60938H51.8409C51.9744 8.23438 52.2159 7.93466 52.5653 7.71023C52.9176 7.48295 53.3338 7.36932 53.8139 7.36932C54.4247 7.36932 54.9205 7.56392 55.3011 7.95312C55.6847 8.33949 55.8764 8.88778 55.8764 9.59801V14H54.0653V9.95597C54.0653 9.59233 53.9688 9.3196 53.7756 9.13778C53.5824 8.95597 53.3409 8.86506 53.0511 8.86506C52.7216 8.86506 52.4645 8.97017 52.2798 9.1804C52.0952 9.38778 52.0028 9.66193 52.0028 10.0028V14H50.2429V9.91761C50.2429 9.59659 50.1506 9.34091 49.9659 9.15057C49.7841 8.96023 49.544 8.86506 49.2457 8.86506C49.044 8.86506 48.8622 8.91619 48.7003 9.01847C48.5412 9.1179 48.4148 9.25852 48.321 9.44034C48.2273 9.61932 48.1804 9.82955 48.1804 10.071V14H46.3651Z" fill="white"/>
</svg>
